<svg width="640" height="800" viewBox="0 0 640 800" fill="none" xmlns="http://www.w3.org/2000/svg">
  <rect width="640" height="800" rx="48" fill="url(#bg)"/>
  <circle cx="118" cy="150" r="90" fill="#38BDF8" fill-opacity="0.2"/>
  <circle cx="530" cy="662" r="120" fill="#22C55E" fill-opacity="0.18"/>
  <path d="M170 724C194 620 250 568 320 568C390 568 446 620 470 724H170Z" fill="#0F172A" fill-opacity="0.96"/>
  <path d="M228 310C228 214.934 270.111 152 320 152C369.889 152 412 214.934 412 310V394C412 489.066 369.889 552 320 552C270.111 552 228 489.066 228 394V310Z" fill="#C98D63"/>
  <path d="M217 324C217 206.363 282.212 118 320 118C357.788 118 423 206.363 423 324V336L394 339C349.288 343.626 304.604 328.533 270.89 297.673L244 273V324H217Z" fill="#111827"/>
  <path d="M263 364H297" stroke="#111827" stroke-width="8" stroke-linecap="round"/>
  <path d="M343 364H377" stroke="#111827" stroke-width="8" stroke-linecap="round"/>
  <path d="M301 444C309.412 452.627 314.902 456 320 456C325.098 456 330.588 452.627 339 444" stroke="#7C2D12" stroke-width="8" stroke-linecap="round"/>
  <rect x="214" y="236" width="212" height="70" rx="24" fill="#111827"/>
  <defs>
    <linearGradient id="bg" x1="52" y1="84" x2="564" y2="770" gradientUnits="userSpaceOnUse">
      <stop stop-color="#020617"/>
      <stop offset="0.56" stop-color="#0F766E"/>
      <stop offset="1" stop-color="#14532D"/>
    </linearGradient>
  </defs>
</svg>
