<svg xmlns="http://www.w3.org/2000/svg" width="160" height="160" viewBox="0 0 160 160" fill="none"><rect width="160" height="160" rx="40" fill="url(#bg)"/><ellipse cx="80" cy="170" rx="72" ry="54" fill="#E8EFFC"/><path d="M50 145c6-27 18-42 30-42h0c12 0 24 15 30 42" fill="#FFF7F2"/><path d="M49 62c0-25 14-40 34-40 21 0 33 13 33 37 0 10-2 18-6 25-6-8-17-14-31-14-12 0-22 4-29 10-1-5-1-12-1-18Z" fill="#5B3C58"/><ellipse cx="81" cy="74" rx="26" ry="31" fill="#F2C7B3"/><path d="M59 68c6-14 16-22 29-22 10 0 19 5 26 15-8-2-16-3-24-3-11 0-22 4-31 10Z" fill="#6D4A68"/><circle cx="71" cy="75" r="2.8" fill="#2B2331"/><circle cx="91" cy="75" r="2.8" fill="#2B2331"/><path d="M75 87c4 3 8 3 12 0" stroke="#B56C67" stroke-width="2.6" stroke-linecap="round"/><path d="M64 105c4 8 10 12 17 12 8 0 14-4 18-12" stroke="#EAB29D" stroke-width="10" stroke-linecap="round" opacity="0.65"/><path d="M58 145c5-18 12-29 23-29 11 0 20 9 25 29" fill="#FFFFFF"/><path d="M59 145c3-12 9-20 21-20 12 0 18 8 22 20" fill="#B9D8FF"/><defs><linearGradient id="bg" x1="10" y1="12" x2="148" y2="150" gradientUnits="userSpaceOnUse"><stop stop-color="#FFF1F7"/><stop offset="1" stop-color="#DDF7FF"/></linearGradient></defs></svg>
