<svg xmlns="http://www.w3.org/2000/svg" width="160" height="160" viewBox="0 0 160 160" fill="none">
  <rect width="160" height="160" rx="40" fill="url(#bg)"/>
  <circle cx="80" cy="58" r="42" fill="#F8E9FF" opacity="0.75"/>
  <path d="M35 145c6-29 24-46 45-46s39 17 45 46" fill="#E7EEFF"/>
  <path d="M56 58c0-22 11-36 24-36 20 0 31 14 31 33 0 8-2 16-5 22-8-7-18-12-30-12-8 0-14 1-20 4V58Z" fill="#6A4C93"/>
  <path d="M65 78c4 6 10 10 18 10s14-4 18-10v9c0 10-8 22-18 22S65 97 65 87v-9Z" fill="#E9B9A6"/>
  <ellipse cx="83" cy="66" rx="20" ry="24" fill="#F4CBB7"/>
  <path d="M66 62c2-11 8-19 16-19 10 0 19 7 22 18-6-3-12-5-19-5-6 0-13 2-19 6Z" fill="#6A4C93"/>
  <circle cx="75" cy="68" r="2.5" fill="#2F2A3A"/>
  <circle cx="91" cy="68" r="2.5" fill="#2F2A3A"/>
  <path d="M78 80c3 2 7 2 10 0" stroke="#B76862" stroke-width="2.5" stroke-linecap="round"/>
  <path d="M55 144c4-19 17-31 28-31 11 0 24 12 28 31" fill="#FFFFFF"/>
  <path d="M62 144c2-17 10-26 21-26 11 0 20 9 22 26" fill="#8DD3FF" opacity="0.55"/>
  <defs>
    <linearGradient id="bg" x1="18" y1="16" x2="144" y2="144" gradientUnits="userSpaceOnUse">
      <stop stop-color="#FAEEFF"/>
      <stop offset="1" stop-color="#DDF8FF"/>
    </linearGradient>
  </defs>
</svg>
