<svg xmlns="http://www.w3.org/2000/svg" width="160" height="160" viewBox="0 0 160 160" fill="none">
  <rect width="160" height="160" rx="40" fill="url(#bg)"/>
  <circle cx="80" cy="56" r="42" fill="#F8E9FF" opacity="0.8"/>
  <path d="M35 145c7-28 24-45 45-45 20 0 37 17 45 45" fill="#FFF0E9"/>
  <ellipse cx="81" cy="69" rx="21" ry="25" fill="#F1CFC1"/>
  <path d="M54 63c0-24 12-39 28-39 17 0 30 15 30 38 0 7-2 13-4 18-8-7-18-12-31-12-9 0-17 2-23 6v-11Z" fill="#44304D"/>
  <path d="M58 56c6-9 14-14 24-14 13 0 23 7 29 19-2-19-15-32-30-32-15 0-24 10-23 27Z" fill="#44304D" opacity="0.88"/>
  <circle cx="73" cy="70" r="2.5" fill="#2D2430"/>
  <circle cx="89" cy="70" r="2.5" fill="#2D2430"/>
  <path d="M76 82c3 2 8 2 11 0" stroke="#B06F6A" stroke-width="2.5" stroke-linecap="round"/>
  <path d="M52 145c4-21 17-34 29-34 11 0 24 13 28 34" fill="#FFFFFF"/>
  <path d="M58 145c3-18 12-28 23-28 10 0 18 10 21 28" fill="#FFC08F" opacity="0.45"/>
  <defs>
    <linearGradient id="bg" x1="18" y1="16" x2="144" y2="144" gradientUnits="userSpaceOnUse">
      <stop stop-color="#F7E4FF"/>
      <stop offset="1" stop-color="#FFEEDB"/>
    </linearGradient>
  </defs>
</svg>
