<svg xmlns="http://www.w3.org/2000/svg" width="160" height="160" viewBox="0 0 160 160" fill="none"><rect width="160" height="160" rx="40" fill="url(#bg)"/><ellipse cx="80" cy="170" rx="72" ry="54" fill="#FFF0E8"/><path d="M52 145c5-26 17-40 28-40h0c11 0 23 14 28 40" fill="#FFF8F5"/><path d="M49 64c0-25 15-40 33-40 24 0 36 17 36 40 0 8-2 16-5 22-8-8-19-12-32-12-11 0-21 4-29 10-2-6-3-13-3-20Z" fill="#4E3852"/><ellipse cx="81" cy="77" rx="24" ry="30" fill="#F1C7B9"/><path d="M58 68c5-13 16-21 29-21 12 0 22 6 29 16-9-3-18-5-27-5-11 0-21 4-31 10Z" fill="#604662"/><circle cx="72" cy="78" r="2.8" fill="#281E2B"/><circle cx="90" cy="78" r="2.8" fill="#281E2B"/><path d="M74 90c4 3 8 3 12 0" stroke="#B46D6A" stroke-width="2.6" stroke-linecap="round"/><path d="M60 145c4-17 11-28 22-28 11 0 19 11 22 28" fill="#FFFFFF"/><path d="M61 145c3-11 9-20 20-20 12 0 18 9 22 20" fill="#FFD7C7"/><defs><linearGradient id="bg" x1="10" y1="12" x2="148" y2="148" gradientUnits="userSpaceOnUse"><stop stop-color="#FFF0F7"/><stop offset="1" stop-color="#FFF5E6"/></linearGradient></defs></svg>
