<svg xmlns="http://www.w3.org/2000/svg" width="160" height="160" viewBox="0 0 160 160" fill="none"><rect width="160" height="160" rx="40" fill="url(#bg)"/><ellipse cx="80" cy="170" rx="72" ry="54" fill="#E7F3FF"/><path d="M52 145c5-25 16-39 28-39h0c11 0 22 14 27 39" fill="#FAFDFF"/><path d="M50 63c0-24 14-39 31-39 23 0 36 16 36 39 0 8-2 16-5 22-8-8-18-12-31-12-11 0-20 4-28 10-2-7-3-13-3-20Z" fill="#314760"/><ellipse cx="81" cy="77" rx="24" ry="30" fill="#E8C2A8"/><path d="M59 68c5-13 15-21 28-21 11 0 21 5 28 15-9-3-18-4-27-4-10 0-20 4-29 10Z" fill="#36506C"/><circle cx="72" cy="78" r="2.8" fill="#1F1E24"/><circle cx="90" cy="78" r="2.8" fill="#1F1E24"/><path d="M74 90c4 3 8 3 12 0" stroke="#AA6C5F" stroke-width="2.6" stroke-linecap="round"/><path d="M60 145c4-16 12-27 22-27 11 0 18 9 22 27" fill="#FFFFFF"/><path d="M61 145c2-11 9-18 20-18 12 0 18 7 22 18" fill="#B3D9FF"/><defs><linearGradient id="bg" x1="12" y1="10" x2="148" y2="148" gradientUnits="userSpaceOnUse"><stop stop-color="#EFF6FF"/><stop offset="1" stop-color="#ECFAFF"/></linearGradient></defs></svg>
