<svg xmlns="http://www.w3.org/2000/svg" width="160" height="160" viewBox="0 0 160 160" fill="none"><rect width="160" height="160" rx="40" fill="url(#bg)"/><ellipse cx="80" cy="170" rx="72" ry="54" fill="#E8F6EE"/><path d="M52 145c5-26 17-40 28-40h0c11 0 23 14 28 40" fill="#F8FFFB"/><path d="M50 64c0-24 15-39 32-39 24 0 36 16 36 39 0 8-2 16-5 23-8-8-18-12-31-12-12 0-21 4-29 10-2-7-3-13-3-21Z" fill="#243E3C"/><ellipse cx="81" cy="77" rx="24" ry="30" fill="#C88B63"/><path d="M59 68c4-13 15-21 28-21 11 0 21 5 29 15-9-3-18-4-28-4-10 0-20 4-29 10Z" fill="#284846"/><circle cx="72" cy="78" r="2.8" fill="#1E1920"/><circle cx="90" cy="78" r="2.8" fill="#1E1920"/><path d="M74 90c4 3 8 3 12 0" stroke="#965E49" stroke-width="2.6" stroke-linecap="round"/><path d="M60 145c4-17 11-28 22-28 11 0 19 11 22 28" fill="#FFFFFF"/><path d="M61 145c3-11 9-20 20-20 12 0 18 9 22 20" fill="#A8E7CC"/><defs><linearGradient id="bg" x1="12" y1="12" x2="146" y2="148" gradientUnits="userSpaceOnUse"><stop stop-color="#EFFCF4"/><stop offset="1" stop-color="#E7F8FF"/></linearGradient></defs></svg>
