<svg xmlns="http://www.w3.org/2000/svg" width="160" height="160" viewBox="0 0 160 160" fill="none"><rect width="160" height="160" rx="40" fill="url(#bg)"/><ellipse cx="80" cy="170" rx="72" ry="54" fill="#E6F6F0"/><path d="M53 145c5-25 16-39 27-39h0c11 0 22 14 27 39" fill="#F6FFFB"/><path d="M51 65c0-24 14-39 31-39 23 0 35 16 35 38 0 8-2 16-5 23-8-8-18-12-31-12-11 0-20 4-28 10-1-6-2-12-2-20Z" fill="#2F4E49"/><ellipse cx="82" cy="77" rx="24" ry="30" fill="#E7C1A9"/><path d="M61 69c5-13 15-22 28-22 11 0 21 6 28 15-9-3-18-4-27-4-10 0-20 4-29 11Z" fill="#355954"/><circle cx="72" cy="78" r="2.8" fill="#1D1B20"/><circle cx="90" cy="78" r="2.8" fill="#1D1B20"/><path d="M74 90c4 3 8 3 12 0" stroke="#A76A5F" stroke-width="2.6" stroke-linecap="round"/><path d="M60 145c4-16 11-27 22-27 11 0 18 9 22 27" fill="#FFFFFF"/><path d="M61 145c3-11 8-18 21-18 12 0 17 7 21 18" fill="#9DE3C9"/><defs><linearGradient id="bg" x1="10" y1="12" x2="150" y2="148" gradientUnits="userSpaceOnUse"><stop stop-color="#EFFCF7"/><stop offset="1" stop-color="#E9F9FF"/></linearGradient></defs></svg>
