<svg xmlns="http://www.w3.org/2000/svg" width="160" height="160" viewBox="0 0 160 160" fill="none">
  <rect width="160" height="160" rx="40" fill="url(#bg)"/>
  <circle cx="80" cy="56" r="42" fill="#EAF4FF" opacity="0.82"/>
  <path d="M34 145c8-28 25-46 46-46s38 18 46 46" fill="#EEF0FF"/>
  <ellipse cx="80" cy="69" rx="21" ry="25" fill="#F0C8A7"/>
  <path d="M56 63c0-24 11-39 27-39 16 0 29 14 29 36 0 7-2 13-4 18-7-7-16-11-28-11-10 0-18 2-24 6v-10Z" fill="#7A4E2D"/>
  <path d="M63 52c6-7 14-10 22-10 12 0 21 6 27 15-2-17-14-28-29-28-14 0-23 9-20 23Z" fill="#7A4E2D" opacity="0.88"/>
  <circle cx="73" cy="70" r="2.5" fill="#302722"/>
  <circle cx="89" cy="70" r="2.5" fill="#302722"/>
  <path d="M76 82c3 2 7 2 10 0" stroke="#AF7068" stroke-width="2.5" stroke-linecap="round"/>
  <path d="M52 145c4-21 17-34 28-34s24 13 28 34" fill="#FFFFFF"/>
  <path d="M58 145c4-18 12-28 22-28 10 0 18 10 22 28" fill="#8DB6FF" opacity="0.45"/>
  <defs>
    <linearGradient id="bg" x1="18" y1="16" x2="144" y2="144" gradientUnits="userSpaceOnUse">
      <stop stop-color="#E1F3FF"/>
      <stop offset="1" stop-color="#F1E7FF"/>
    </linearGradient>
  </defs>
</svg>
