<svg xmlns="http://www.w3.org/2000/svg" width="160" height="160" viewBox="0 0 160 160" fill="none"><rect width="160" height="160" rx="40" fill="url(#bg)"/><ellipse cx="80" cy="170" rx="72" ry="54" fill="#EDF0FF"/><path d="M52 145c5-26 17-40 28-40h0c11 0 23 14 28 40" fill="#FBFBFF"/><path d="M49 63c0-24 15-39 33-39 23 0 36 16 36 40 0 8-2 16-5 23-8-8-19-12-32-12-11 0-21 4-29 10-2-7-3-14-3-22Z" fill="#5A3F69"/><ellipse cx="81" cy="77" rx="24" ry="30" fill="#F0C5B5"/><path d="M59 69c4-13 15-22 28-22 11 0 21 6 29 16-9-3-18-5-27-5-11 0-21 4-30 11Z" fill="#684776"/><circle cx="72" cy="78" r="2.8" fill="#281F2E"/><circle cx="90" cy="78" r="2.8" fill="#281F2E"/><path d="M74 90c4 3 8 3 12 0" stroke="#B06B67" stroke-width="2.6" stroke-linecap="round"/><path d="M60 145c4-17 11-28 22-28 11 0 18 11 22 28" fill="#FFFFFF"/><path d="M61 145c3-11 9-20 20-20 12 0 18 9 22 20" fill="#C2CEFF"/><defs><linearGradient id="bg" x1="12" y1="10" x2="146" y2="148" gradientUnits="userSpaceOnUse"><stop stop-color="#F3F0FF"/><stop offset="1" stop-color="#E6F9FF"/></linearGradient></defs></svg>
