<svg xmlns="http://www.w3.org/2000/svg" width="160" height="160" viewBox="0 0 160 160" fill="none">
  <rect width="160" height="160" rx="40" fill="url(#bg)"/>
  <circle cx="80" cy="56" r="42" fill="#E3FAFF" opacity="0.8"/>
  <path d="M34 145c8-28 25-45 46-45s38 17 46 45" fill="#E9F0FF"/>
  <ellipse cx="81" cy="69" rx="21" ry="25" fill="#F0C7B6"/>
  <path d="M54 63c0-24 11-39 28-39 17 0 30 15 30 37 0 7-1 13-3 18-8-7-18-12-31-12-9 0-17 2-24 6v-10Z" fill="#2E4057"/>
  <path d="M58 55c6-9 14-13 24-13 13 0 22 7 29 18-3-19-15-31-30-31-15 0-24 10-23 26Z" fill="#2E4057" opacity="0.88"/>
  <circle cx="73" cy="70" r="2.5" fill="#2B2830"/>
  <circle cx="89" cy="70" r="2.5" fill="#2B2830"/>
  <path d="M76 82c3 2 8 2 11 0" stroke="#AC6B66" stroke-width="2.5" stroke-linecap="round"/>
  <path d="M52 145c4-21 17-34 29-34 11 0 24 13 28 34" fill="#FFFFFF"/>
  <path d="M58 145c3-18 12-28 23-28 10 0 18 10 21 28" fill="#94BEFF" opacity="0.42"/>
  <defs>
    <linearGradient id="bg" x1="18" y1="16" x2="144" y2="144" gradientUnits="userSpaceOnUse">
      <stop stop-color="#DFF9FF"/>
      <stop offset="1" stop-color="#F6ECFF"/>
    </linearGradient>
  </defs>
</svg>
