<svg xmlns="http://www.w3.org/2000/svg" width="160" height="160" viewBox="0 0 160 160" fill="none"><rect width="160" height="160" rx="40" fill="url(#bg)"/><ellipse cx="80" cy="170" rx="72" ry="54" fill="#E6F3FF"/><path d="M54 145c5-25 16-40 26-40h0c10 0 21 15 26 40" fill="#F6FAFF"/><path d="M51 65c0-25 14-40 31-40 22 0 35 15 35 38 0 9-2 17-5 23-8-8-18-13-31-13-11 0-21 4-28 10-1-5-2-11-2-18Z" fill="#26415C"/><ellipse cx="82" cy="76" rx="24" ry="30" fill="#EDC3A9"/><path d="M60 69c4-13 14-22 27-22 11 0 21 6 28 16-8-3-17-5-26-5-11 0-21 4-29 11Z" fill="#2B4A69"/><circle cx="72" cy="77" r="2.8" fill="#1F1D22"/><circle cx="90" cy="77" r="2.8" fill="#1F1D22"/><path d="M74 89c4 3 8 3 12 0" stroke="#AE6D61" stroke-width="2.6" stroke-linecap="round"/><path d="M60 145c4-16 11-27 22-27 11 0 18 9 22 27" fill="#FFFFFF"/><path d="M61 145c3-11 9-18 21-18 12 0 18 7 21 18" fill="#8EC5FF"/><defs><linearGradient id="bg" x1="12" y1="12" x2="146" y2="148" gradientUnits="userSpaceOnUse"><stop stop-color="#ECF8FF"/><stop offset="1" stop-color="#EEF1FF"/></linearGradient></defs></svg>
