<svg xmlns="http://www.w3.org/2000/svg" width="160" height="160" viewBox="0 0 160 160" fill="none">
  <rect width="160" height="160" rx="40" fill="url(#bg)"/>
  <circle cx="80" cy="56" r="42" fill="#E8FBFF" opacity="0.78"/>
  <path d="M34 145c8-30 26-46 46-46s38 16 46 46" fill="#E7FFF6"/>
  <ellipse cx="80" cy="68" rx="21" ry="25" fill="#EFC2A4"/>
  <path d="M57 63c0-23 11-38 27-38 17 0 30 13 30 35 0 6-1 11-3 16-7-6-17-10-30-10-9 0-17 2-24 6v-9Z" fill="#24486B"/>
  <path d="M60 58c6-8 14-12 24-12 13 0 22 7 28 17-3-16-15-28-29-28-15 0-24 10-23 23Z" fill="#24486B" opacity="0.85"/>
  <circle cx="73" cy="69" r="2.5" fill="#2A2F3A"/>
  <circle cx="89" cy="69" r="2.5" fill="#2A2F3A"/>
  <path d="M76 82c3 2 7 2 10 0" stroke="#A9655F" stroke-width="2.5" stroke-linecap="round"/>
  <path d="M53 145c5-21 17-34 27-34 12 0 24 13 27 34" fill="#FFFFFF"/>
  <path d="M58 145c4-18 12-28 22-28 10 0 18 10 22 28" fill="#72C6FF" opacity="0.45"/>
  <defs>
    <linearGradient id="bg" x1="16" y1="16" x2="144" y2="144" gradientUnits="userSpaceOnUse">
      <stop stop-color="#E4F8FF"/>
      <stop offset="1" stop-color="#DCFFF0"/>
    </linearGradient>
  </defs>
</svg>
