<svg xmlns="http://www.w3.org/2000/svg" width="160" height="160" viewBox="0 0 160 160" fill="none"><rect width="160" height="160" rx="40" fill="url(#bg)"/><ellipse cx="80" cy="170" rx="72" ry="54" fill="#C49A6C"/><path d="M51 145c6-26 18-40 29-40h0c12 0 24 14 29 40" fill="#F5E6D3"/><path d="M48 64c0-25 15-41 34-41 24 0 35 17 35 41 0 8-2 16-5 22-7-9-17-13-30-13-12 0-23 4-31 11-2-6-3-12-3-20Z" fill="#3D2817"/><ellipse cx="81" cy="76" rx="24" ry="30" fill="#B8956A"/><path d="M58 68c6-14 16-21 29-21 12 0 22 6 29 17-10-4-19-6-28-6-11 0-21 3-30 10Z" fill="#2D1F15"/><circle cx="72" cy="77" r="2.8" fill="#1A1210"/><circle cx="90" cy="77" r="2.8" fill="#1A1210"/><path d="M74 89c4 3 8 3 12 0" stroke="#6B4423" stroke-width="2.6" stroke-linecap="round"/><path d="M59 145c4-17 11-28 22-28 11 0 19 11 23 28" fill="#F5E6D3"/><path d="M61 145c2-11 9-20 20-20 11 0 18 9 22 20" fill="#D9B896"/><defs><linearGradient id="bg" x1="12" y1="10" x2="146" y2="148" gradientUnits="userSpaceOnUse"><stop stop-color="#E8DDD4"/><stop offset="1" stop-color="#D4C4B0"/></linearGradient></defs></svg>
