<svg width="220" height="44" viewBox="0 0 220 44" fill="none" xmlns="http://www.w3.org/2000/svg">
  <g fill="#111827">
    <path d="M24.25 15.4C25.75 13.45 26.75 10.8 26.45 8.2C24.3 8.35 21.65 9.65 20.1 11.55C18.7 13.2 17.45 15.95 17.85 18.45C20.25 18.65 22.75 17.35 24.25 15.4Z"/>
    <path d="M26.4 19.4C22.85 19.2 19.85 21.45 18.15 21.45C16.35 21.45 13.65 19.55 10.7 19.6C6.9 19.65 3.35 21.8 1.4 25.25C-2.6 32.2 0.4 42.45 4.2 47.95C6.05 50.65 8.3 53.65 11.3 53.55C14.15 53.45 15.25 51.75 18.65 51.75C22.05 51.75 23.05 53.55 26.05 53.5C29.15 53.45 31.1 50.75 32.95 48.05C35.1 44.95 36 41.95 36.05 41.8C35.95 41.75 30 39.45 29.95 32.55C29.9 26.8 34.65 24.05 34.85 23.95C32.15 20 27.95 19.55 26.4 19.4Z" transform="translate(8 2) scale(0.65)"/>
    <text x="42" y="29" font-size="24" font-weight="700" font-family="Inter, Arial, sans-serif">Apple Pay</text>
  </g>
</svg>
